/* XPM */
static char * add_12_xpm[] = {
"12 12 87 1",
" 	c None",
".	c #8EBD79",
"+	c #A3CC93",
"@	c #ABD09D",
"#	c #A3CC96",
"$	c #8CBF7C",
"%	c #6FAA5E",
"&	c #88B971",
"*	c #B8D9AB",
"=	c #C9E7C2",
"-	c #B5E0AC",
";	c #ADDDA4",
">	c #B2DDA9",
",	c #8FC480",
"'	c #5F9E50",
")	c #8BBB75",
"!	c #B3D7A5",
"~	c #C0E6B9",
"{	c #96D18B",
"]	c #A4D59B",
"^	c #A8DC9F",
"/	c #8DD081",
"(	c #A1D796",
"_	c #7FB96F",
":	c #559846",
"<	c #99C787",
"[	c #BCE1B3",
"}	c #94D189",
"|	c #87C87D",
"1	c #E0F0DD",
"2	c #DDEEDA",
"3	c #78BE68",
"4	c #79C066",
"5	c #9ACE8D",
"6	c #63A454",
"7	c #9FCA90",
"8	c #A5DA9A",
"9	c #9ED494",
"0	c #DFF0DC",
"a	c #F7FBF6",
"b	c #F6FAF5",
"c	c #DBECD7",
"d	c #8CC679",
"e	c #8DC87B",
"f	c #75AF69",
"g	c #93C484",
"h	c #95D288",
"i	c #96D48C",
"j	c #DAEDD6",
"k	c #F5FAF4",
"l	c #F6FBF5",
"m	c #DBEDD6",
"n	c #8BC679",
"o	c #8CC578",
"p	c #71AC65",
"q	c #7BB568",
"r	c #9CD18F",
"s	c #77C266",
"t	c #6FB95E",
"u	c #DBECD6",
"v	c #70B759",
"w	c #72B85B",
"x	c #96C886",
"y	c #549948",
"z	c #68A656",
"A	c #82BB71",
"B	c #98CE89",
"C	c #75BC5E",
"D	c #8AC378",
"E	c #71B659",
"F	c #97CA85",
"G	c #6EAB5E",
"H	c #37852E",
"I	c #5D9C4D",
"J	c #7BB569",
"K	c #99CA89",
"L	c #8BC377",
"M	c #8AC175",
"N	c #96C786",
"O	c #6DAA5D",
"P	c #33812B",
"Q	c #519643",
"R	c #5FA051",
"S	c #72AC65",
"T	c #6FAA62",
"U	c #529846",
"V	c #37832E",
"            ",
"   .+@#$%   ",
"  &*=-;>,'  ",
" )!~{]^/(_: ",
" <[}|123456 ",
" 7890abcdef ",
" ghijklmnop ",
" qrstumvwxy ",
" zABCdDEFGH ",
"  IJKLMNOP  ",
"   QRSTUV   ",
"            "};
