/* XPM */
static char * application_form_wrench_12_xpm[] = {
"12 12 102 2",
"  	c None",
". 	c #7EA3D4",
"+ 	c #8BB3E2",
"@ 	c #86B0E2",
"# 	c #86AEE1",
"$ 	c #85ADDF",
"% 	c #84ACDE",
"& 	c #82ABDD",
"* 	c #82A9DB",
"= 	c #81A8DA",
"- 	c #81A7D8",
"; 	c #799BCA",
"> 	c #7EA9DD",
", 	c #81ACDF",
"' 	c #759CD0",
") 	c #99B8E1",
"! 	c #F6F6F6",
"~ 	c #F5F6F6",
"{ 	c #EFEFF0",
"] 	c #E9E9E9",
"^ 	c #DCDCDC",
"/ 	c #C4C4C4",
"( 	c #B7B7B7",
"_ 	c #A4AFC0",
": 	c #98B7DF",
"< 	c #CDD8EC",
"[ 	c #A6BCE3",
"} 	c #B9CAE7",
"| 	c #DBDBDB",
"1 	c #DADADA",
"2 	c #E1E1E1",
"3 	c #C9C9C9",
"4 	c #CECECE",
"5 	c #C2C2C2",
"6 	c #9DA6B5",
"7 	c #7E8999",
"8 	c #95B5DD",
"9 	c #DEE3ED",
"0 	c #CBD5E9",
"a 	c #D4DCEB",
"b 	c #F0F0F0",
"c 	c #FEFEFE",
"d 	c #D2D2D2",
"e 	c #C8C8C8",
"f 	c #B5B5B5",
"g 	c #ACAEB3",
"h 	c #9D9E9F",
"i 	c #93B2DA",
"j 	c #EEEEEE",
"k 	c #EDEEEE",
"l 	c #E8E9E8",
"m 	c #D8DCE3",
"n 	c #B6C3D9",
"o 	c #B3B7BE",
"p 	c #C1C1C1",
"q 	c #AFB0B1",
"r 	c #91959A",
"s 	c #8FAED6",
"t 	c #C6D1E5",
"u 	c #A2B8DF",
"v 	c #B3C3E1",
"w 	c #CBCFD8",
"x 	c #B2C4E1",
"y 	c #A4BDE4",
"z 	c #9DB1D1",
"A 	c #AAAFB8",
"B 	c #BCBCBC",
"C 	c #9AA3B3",
"D 	c #8DA9D2",
"E 	c #D5DBE5",
"F 	c #C3CEE2",
"G 	c #C2CEE2",
"H 	c #AFC2DF",
"I 	c #ABC2E9",
"J 	c #A6BFE9",
"K 	c #94B1E0",
"L 	c #B0C3E2",
"M 	c #F8F8F8",
"N 	c #9EAEC9",
"O 	c #809ECA",
"P 	c #C6CFDD",
"Q 	c #C5CEDB",
"R 	c #9DB7E1",
"S 	c #A6BFE8",
"T 	c #9DB9E7",
"U 	c #96B4E4",
"V 	c #8FACDC",
"W 	c #B0BED6",
"X 	c #C1C9D6",
"Y 	c #8B9FC1",
"Z 	c #678DC2",
"` 	c #6489BF",
" .	c #88A9E1",
"..	c #A0BBE8",
"+.	c #93B1E4",
"@.	c #6C92D3",
"#.	c #567CB9",
"$.	c #5475AB",
"%.	c #5372A9",
"&.	c #6F98DB",
"*.	c #749BDC",
"=.	c #6993DA",
"                        ",
". + @ # $ % & * = - ;   ",
"> , , , , , , , , , '   ",
") ! ~ ~ { ] ] ^ / ( _   ",
": < [ } | 1 2 3 4 5 6 7 ",
"8 9 0 a 1 b c d e f g h ",
"i j k j l m n o p ( q r ",
"s t u v w x y z A B C   ",
"D E F G H I J K L M N   ",
"O P Q R S T U V W X Y   ",
"  Z `  ...+.@.#.$.%.    ",
"      &.*.=.            "};
