#define _arrow_left_width 7
#define _arrow_left_height 12
static unsigned char _arrow_left_bits[] = {
	0x00, 0x00, 0x10, 0x18, 0x1c, 0x1e, 0x1e, 0x1c, 0x18, 0x10, 0x00, 0x00 
};
