#define arrow_down_width 12
#define arrow_down_height 7
static unsigned char arrow_down_bits[] = {
   0x00, 0x00, 0x00, 0x00, 0xfc, 0x03, 0xf8, 0x01, 0xf0, 0x00, 0x60, 0x00,
   0x00, 0x00 };
