#define arrow_up_width 12
#define arrow_up_height 7
static unsigned char arrow_up_bits[] = {
   0x00, 0x00, 0x60, 0x00, 0xf0, 0x00, 0xf8, 0x01, 0xfc, 0x03, 0x00, 0x00,
   0x00, 0x00 };
