#define _arrow_right_width 7
#define _arrow_right_height 12
static unsigned char _arrow_right_bits[] = {
	0x00, 0x00, 0x04, 0x0c, 0x1c, 0x3c, 0x3c, 0x1c, 0x0c, 0x04, 0x00, 0x00 
};
