/* XPM */
static char * delete_12_xpm[] = {
"12 12 81 1",
" 	c None",
".	c #E37372",
"+	c #EA918D",
"@	c #EB9C98",
"#	c #E99690",
"$	c #E37F76",
"%	c #D56358",
"&	c #E16A6B",
"*	c #F1A9A6",
"=	c #F9C3BC",
"-	c #FAB2A4",
";	c #FAA99B",
">	c #F7AEA2",
",	c #E88479",
"'	c #CC5B4C",
")	c #E26F6E",
"!	c #F1A39F",
"~	c #FCBFB2",
"{	c #F49481",
"]	c #F28C78",
"^	c #F8907A",
"/	c #F88C77",
"(	c #F7A08E",
"_	c #E17568",
":	c #C85542",
"<	c #E98680",
"[	c #F8B6AC",
"}	c #F48E7B",
"|	c #EF7767",
"1	c #F07261",
"2	c #F17260",
"3	c #F27662",
"4	c #F09185",
"5	c #D15F4E",
"6	c #EA918A",
"7	c #F9A090",
"8	c #F39B8A",
"9	c #FAD7D4",
"0	c #EF7E73",
"a	c #EF7C71",
"b	c #D87464",
"c	c #E7847D",
"d	c #F78F7D",
"e	c #F69481",
"f	c #FAD6D3",
"g	c #ED796F",
"h	c #EC776E",
"i	c #D57261",
"j	c #DF6B61",
"k	c #F29386",
"l	c #F06857",
"m	c #EA5C4E",
"n	c #E9594D",
"o	c #E8594D",
"p	c #E75A4F",
"q	c #EB887F",
"r	c #C95B44",
"s	c #D25E52",
"t	c #E3746A",
"u	c #F28C80",
"v	c #EB5E51",
"w	c #E95A4E",
"x	c #E7584D",
"y	c #E6574E",
"z	c #EE827C",
"A	c #D66859",
"B	c #BA4B2C",
"C	c #CB5949",
"D	c #DE6D63",
"E	c #EC8A82",
"F	c #EB746D",
"G	c #E9706B",
"H	c #E9867F",
"I	c #D66657",
"J	c #B74A2B",
"K	c #C75440",
"L	c #CF5E4C",
"M	c #D67061",
"N	c #D46D5D",
"O	c #C85A43",
"P	c #B94B2C",
"            ",
"   .+@#$%   ",
"  &*=-;>,'  ",
" )!~{]^/(_: ",
" <[}|122345 ",
" 67899990ab ",
" cdeffffghi ",
" jklmnnopqr ",
" stuvwxyzAB ",
"  CDEFGHIJ  ",
"   KLMNOP   ",
"            "};
