#define t4_width 64
#define t4_height 18
#define t4_x_hot 5
#define t4_y_hot 5
static char t4_bits[] = {
   0xff, 0x07, 0x00, 0x00, 0x00, 0x00, 0x00, 0x00, 0x01, 0x04, 0x00, 0x00,
   0x00, 0x00, 0x00, 0x00, 0x01, 0x04, 0x00, 0x00, 0x00, 0x00, 0x00, 0x00,
   0x01, 0x04, 0x00, 0x00, 0x00, 0x00, 0x00, 0x00, 0x01, 0x04, 0x00, 0x00,
   0x00, 0x00, 0x00, 0x00, 0xf9, 0x04, 0x00, 0x00, 0x00, 0x00, 0x00, 0x00,
   0x61, 0x04, 0x00, 0x00, 0x00, 0x00, 0x00, 0x00, 0xc1, 0x05, 0x00, 0x00,
   0x00, 0x00, 0x00, 0x00, 0xc1, 0xc7, 0xff, 0xff, 0xff, 0xff, 0x0f, 0x00,
   0xc1, 0x0f, 0x00, 0x00, 0x00, 0x00, 0x00, 0x00, 0xff, 0x1f, 0x00, 0x00,
   0x00, 0x00, 0x00, 0x00, 0x80, 0x0f, 0x00, 0x00, 0x00, 0x00, 0x00, 0x00,
   0x80, 0x07, 0x00, 0x00, 0x00, 0x00, 0x00, 0x00, 0x80, 0x0d, 0x00, 0x00,
   0x00, 0x00, 0x00, 0x00, 0x00, 0x19, 0x00, 0x00, 0x00, 0x00, 0x00, 0x00,
   0x00, 0x30, 0x00, 0x00, 0x00, 0x00, 0x00, 0x00, 0x00, 0x60, 0x00, 0x00,
   0x00, 0x00, 0x00, 0x00, 0x00, 0x00, 0x00, 0x00, 0x00, 0x00, 0x00, 0x00};
