/* XPM */
static char * lock_12_xpm[] = {
"12 12 97 2",
"  	c None",
". 	c #ADADAD",
"+ 	c #ABABAB",
"@ 	c #A7A7A7",
"# 	c #A2A2A2",
"$ 	c #B6B6B6",
"% 	c #B9B9B9",
"& 	c #B2B2B2",
"* 	c #AEAEAE",
"= 	c #A1A1A1",
"- 	c #929292",
"; 	c #A4A4A4",
"> 	c #959595",
", 	c #BDBDBD",
"' 	c #9D9D9D",
") 	c #868686",
"! 	c #A0A0A0",
"~ 	c #B8AB7F",
"{ 	c #A9A8A5",
"] 	c #9C9789",
"^ 	c #DCB858",
"/ 	c #DEB652",
"( 	c #DDB04C",
"_ 	c #D8AA48",
": 	c #888173",
"< 	c #8D8C88",
"[ 	c #A28657",
"} 	c #E4D08C",
"| 	c #E3DBBC",
"1 	c #E7DFC0",
"2 	c #F7E6B7",
"3 	c #F7E7BB",
"4 	c #F6E5B9",
"5 	c #F4E1B0",
"6 	c #E0D3AE",
"7 	c #DACEAA",
"8 	c #DBB26A",
"9 	c #EED891",
"0 	c #FAE389",
"a 	c #FADC7F",
"b 	c #FDE191",
"c 	c #FADE90",
"d 	c #F9DD92",
"e 	c #FAD780",
"f 	c #F1C457",
"g 	c #F3CF69",
"h 	c #E7BA6E",
"i 	c #EDD58E",
"j 	c #F9E083",
"k 	c #F5CF6D",
"l 	c #FBDD89",
"m 	c #E8B44D",
"n 	c #D7AA5F",
"o 	c #F8D073",
"p 	c #ECB749",
"q 	c #F2CC63",
"r 	c #E6B669",
"s 	c #ECD18A",
"t 	c #F9DD7E",
"u 	c #F1C35C",
"v 	c #F9D97F",
"w 	c #E6AD4A",
"x 	c #C19C5C",
"y 	c #F6CA68",
"z 	c #E7AB3E",
"A 	c #F2C85F",
"B 	c #E6B264",
"C 	c #EBCD84",
"D 	c #F8D976",
"E 	c #F9D366",
"F 	c #FBDE7A",
"G 	c #FBE687",
"H 	c #FBDF80",
"I 	c #F7CC61",
"J 	c #EEB844",
"K 	c #F1C459",
"L 	c #E5AE60",
"M 	c #EAC87F",
"N 	c #F9E197",
"O 	c #F6D182",
"P 	c #F7DA8F",
"Q 	c #F7DF98",
"R 	c #F7DB93",
"S 	c #F4CD81",
"T 	c #EEC171",
"U 	c #F4D283",
"V 	c #E4AB5C",
"W 	c #DDA646",
"X 	c #E0AB51",
"Y 	c #E0A74D",
"Z 	c #DFA54B",
"` 	c #DEA249",
" .	c #DD9D42",
"..	c #DC973C",
"+.	c #DB9235",
"@.	c #D98E31",
"#.	c #D47E19",
"        . + @ #         ",
"      $ % & * . #       ",
"    & % =     - ; >     ",
"    , '         ) !     ",
"  ~ { ] ^ / ( _ : < [   ",
"  } | 1 2 3 4 5 6 7 8   ",
"  9 0 a b c d e f g h   ",
"  i j k l m n o p q r   ",
"  s t u v w x y z A B   ",
"  C D E F G H I J K L   ",
"  M N O P Q R S T U V   ",
"  W X Y Z `  ...+.@.#.  "};
