/* XPM */
static char * lock_open_12_xpm[] = {
"12 12 96 2",
"  	c None",
". 	c #ABABAB",
"+ 	c #AAAAAA",
"@ 	c #A6A6A6",
"# 	c #A1A1A1",
"$ 	c #A9A9A9",
"% 	c #BABABA",
"& 	c #B4B4B4",
"* 	c #AEAEAE",
"= 	c #ADADAD",
"- 	c #9D9D9D",
"; 	c #B0B0B0",
"> 	c #949494",
", 	c #9B9B9B",
"' 	c #7E7E7E",
") 	c #B2B2B2",
"! 	c #929292",
"~ 	c #919191",
"{ 	c #909090",
"] 	c #AEA381",
"^ 	c #A1A1A0",
"/ 	c #9B9688",
"( 	c #DDB858",
"_ 	c #DEB652",
": 	c #DDB04C",
"< 	c #D79A33",
"[ 	c #E2CF8D",
"} 	c #E2DBBC",
"| 	c #E7DFC0",
"1 	c #F7E6B7",
"2 	c #F7E7BB",
"3 	c #F6E5B9",
"4 	c #E6C17A",
"5 	c #D59B37",
"6 	c #DCAA51",
"7 	c #E4B664",
"8 	c #EED891",
"9 	c #FAE389",
"0 	c #FADC7F",
"a 	c #FDE191",
"b 	c #FADE90",
"c 	c #F9DD92",
"d 	c #FAD780",
"e 	c #F1C457",
"f 	c #F3CF69",
"g 	c #E7BA6E",
"h 	c #EDD58E",
"i 	c #F9E083",
"j 	c #F5CF6D",
"k 	c #FBDD89",
"l 	c #E8B44D",
"m 	c #D7AA5F",
"n 	c #F8D073",
"o 	c #ECB749",
"p 	c #F2CC63",
"q 	c #E6B669",
"r 	c #ECD18A",
"s 	c #F9DD7E",
"t 	c #F1C35C",
"u 	c #F9D97F",
"v 	c #E6AD4A",
"w 	c #C19C5C",
"x 	c #F6CA68",
"y 	c #E7AB3E",
"z 	c #F2C85F",
"A 	c #E6B264",
"B 	c #EBCD84",
"C 	c #F8D976",
"D 	c #F9D366",
"E 	c #FBDE7A",
"F 	c #FBE687",
"G 	c #FBDF80",
"H 	c #F7CC61",
"I 	c #EEB844",
"J 	c #F1C459",
"K 	c #E5AE60",
"L 	c #EAC87F",
"M 	c #F9E197",
"N 	c #F6D182",
"O 	c #F7DA8F",
"P 	c #F7DF98",
"Q 	c #F7DB93",
"R 	c #F4CD81",
"S 	c #EEC171",
"T 	c #F4D283",
"U 	c #E4AB5C",
"V 	c #DDA646",
"W 	c #E0AB51",
"X 	c #E0A74D",
"Y 	c #DFA54B",
"Z 	c #DEA249",
"` 	c #DD9D42",
" .	c #DC973C",
"..	c #DB9235",
"+.	c #D98E31",
"@.	c #D47E19",
"      . + @ #           ",
"    $ % & * = -         ",
"    & ;     > , '       ",
"    ) !       ~ {       ",
"  ] ^ / ( _ :       <   ",
"  [ } | 1 2 3 4 5 6 7   ",
"  8 9 0 a b c d e f g   ",
"  h i j k l m n o p q   ",
"  r s t u v w x y z A   ",
"  B C D E F G H I J K   ",
"  L M N O P Q R S T U   ",
"  V W X Y Z `  ...+.@.  "};
