#define m_width 16
#define m_height 16
#define m_x_hot 0
#define m_y_hot 0
static char bomb_bits[] = {
  0x00,0x00,0x00,0x3F,0xC0,0x7F,0xE0,0xE3,0xF0,0xC0,0x78,0xC0,
  0x38,0xE0,0x1C,0x70,0x1C,0x78,0x0C,0x3C,0x0E,0x1E,0xFF,0x1F,
  0xFF,0x3F,0xFC,0xFB,0xF0,0xE0,0x00,0xC0};