/* XPM */
static char * text_letterspacing_12_xpm[] = {
"12 12 20 1",
" 	c None",
".	c #727272",
"+	c #5B5B5B",
"@	c #696969",
"#	c #424242",
"$	c #555555",
"%	c #323232",
"&	c #474747",
"*	c #181818",
"=	c #2B2B2B",
"-	c #0B0B0B",
";	c #91BCEB",
">	c #8FBAEB",
",	c #8AB7EA",
"'	c #84B3E8",
")	c #6CA2E3",
"!	c #6BA0E3",
"~	c #6A9FE1",
"{	c #669BE0",
"]	c #477ED7",
"            ",
"            ",
"   .  +     ",
"   @   #    ",
"    $  %    ",
"    &   *   ",
"     =  -   ",
"            ",
"  ;>,')!~{  ",
"         ]  ",
"            ",
"            "};
