/* XPM */
static char * wrench_12_xpm[] = {
"12 12 64 1",
" 	c None",
".	c #A9A9A9",
"+	c #B0B0B0",
"@	c #989898",
"#	c #A8A8A8",
"$	c #D3D3D3",
"%	c #D8D8D8",
"&	c #949494",
"*	c #ACACAC",
"=	c #DCDCDC",
"-	c #AEAEAE",
";	c #8D8D8D",
">	c #8B8B8B",
",	c #A7A7A7",
"'	c #D0D0D0",
")	c #A1A1A1",
"!	c #C2C2C2",
"~	c #9A9A9A",
"{	c #91969F",
"]	c #B6B6B6",
"^	c #CCCCCC",
"/	c #C3C3C3",
"(	c #BFBFBF",
"_	c #B3B3B3",
":	c #8F8F8F",
"<	c #90AFE3",
"[	c #97B5E5",
"}	c #8FA7CE",
"|	c #CACACA",
"1	c #AAAAAA",
"2	c #979797",
"3	c #959595",
"4	c #8DAEE3",
"5	c #A8C0E9",
"6	c #B6CBED",
"7	c #9DBAE6",
"8	c #7D98C7",
"9	c #808896",
"0	c #8DADE3",
"a	c #A4BEE9",
"b	c #ACC3EA",
"c	c #9FBAE7",
"d	c #ACC4EA",
"e	c #769CDC",
"f	c #86AAE1",
"g	c #A2BCE9",
"h	c #ACC3EB",
"i	c #99B6E6",
"j	c #A1BCE8",
"k	c #8EAEE3",
"l	c #5C8AD7",
"m	c #86A9E1",
"n	c #97B4E5",
"o	c #9EB9E7",
"p	c #86A8E2",
"q	c #5988D6",
"r	c #779DDD",
"s	c #9EBAE7",
"t	c #A1BBE8",
"u	c #84A7E1",
"v	c #5A89D6",
"w	c #6591D9",
"x	c #648FD8",
"y	c #5383D4",
"       .+@  ",
"      #$%&  ",
"      *=- ;>",
"      ,'.)!~",
"     {]^/(_:",
"   <[}|123; ",
"  456789    ",
" 0abcde     ",
"fghijkl     ",
"mbnopq      ",
"rstuv       ",
" wxy        "};
